<svg width="52" height="52" viewBox="0 0 52 52" fill="none" xmlns="http://www.w3.org/2000/svg">
<g clip-path="url(#clip0_414_5858)">
<rect y="6" width="52.1016" height="40" rx="4" fill="#E2B65C"/>
<path d="M16.5 26.1172H13.5586V24.0547H15.7383C16.2461 24.0547 16.6562 23.9727 16.9688 23.8086C17.2812 23.6367 17.5117 23.3945 17.6602 23.082C17.8086 22.7617 17.8828 22.3867 17.8828 21.957C17.8828 21.6367 17.7969 21.3398 17.625 21.0664C17.4609 20.793 17.207 20.5742 16.8633 20.4102C16.5195 20.2461 16.082 20.1641 15.5508 20.1641C15.1445 20.1641 14.7734 20.2305 14.4375 20.3633C14.1016 20.4961 13.8359 20.6914 13.6406 20.9492C13.4453 21.1992 13.3477 21.5117 13.3477 21.8867H9.24609C9.24609 21.1211 9.41406 20.4375 9.75 19.8359C10.0859 19.2344 10.543 18.7227 11.1211 18.3008C11.707 17.8789 12.3789 17.5586 13.1367 17.3398C13.9023 17.1133 14.707 17 15.5508 17C16.5273 17 17.4102 17.1055 18.1992 17.3164C18.9883 17.5195 19.6641 17.8242 20.2266 18.2305C20.7969 18.6367 21.2344 19.1445 21.5391 19.7539C21.8438 20.3555 21.9961 21.0547 21.9961 21.8516C21.9961 22.4375 21.8633 22.9883 21.5977 23.5039C21.3398 24.0195 20.9688 24.4727 20.4844 24.8633C20 25.2539 19.418 25.5625 18.7383 25.7891C18.0664 26.0078 17.3203 26.1172 16.5 26.1172ZM13.5586 25.0742H16.5C17.4141 25.0742 18.2266 25.1719 18.9375 25.3672C19.6484 25.5625 20.25 25.8477 20.7422 26.2227C21.2422 26.5977 21.6211 27.0625 21.8789 27.6172C22.1367 28.1641 22.2656 28.793 22.2656 29.5039C22.2656 30.3008 22.0977 31.0117 21.7617 31.6367C21.4336 32.2539 20.9688 32.7773 20.3672 33.207C19.7656 33.6367 19.0547 33.9609 18.2344 34.1797C17.4219 34.3984 16.5273 34.5078 15.5508 34.5078C14.7617 34.5078 13.9766 34.4141 13.1953 34.2266C12.4219 34.0312 11.7188 33.7344 11.0859 33.3359C10.4531 32.9375 9.94531 32.4258 9.5625 31.8008C9.1875 31.1758 9 30.4258 9 29.5508H13.125C13.125 29.8945 13.2266 30.2031 13.4297 30.4766C13.6406 30.75 13.9297 30.9648 14.2969 31.1211C14.6641 31.2773 15.082 31.3555 15.5508 31.3555C16.0977 31.3555 16.5625 31.2695 16.9453 31.0977C17.3359 30.9258 17.6328 30.6914 17.8359 30.3945C18.0391 30.0977 18.1406 29.7695 18.1406 29.4102C18.1406 28.9883 18.0898 28.6328 17.9883 28.3438C17.8867 28.0469 17.7344 27.8086 17.5312 27.6289C17.3281 27.4414 17.0742 27.3086 16.7695 27.2305C16.4727 27.1445 16.1289 27.1016 15.7383 27.1016H13.5586V25.0742Z" fill="#2D2A2A"/>
<path d="M26.7305 17.2227H30.082L33.8906 29.0938L37.6992 17.2227H41.0508L35.25 34.2852H32.5312L26.7305 17.2227ZM24.6914 17.2227H28.1602L28.8047 30.3008V34.2852H24.6914V17.2227ZM39.6211 17.2227H43.1016V34.2852H38.9766V30.3008L39.6211 17.2227Z" fill="#2D2A2A"/>
</g>
<defs>
<clipPath id="clip0_414_5858">
<rect width="52" height="52" fill="white"/>
</clipPath>
</defs>
</svg>
