<svg width="192" height="40" viewBox="0 0 192 40" fill="none" xmlns="http://www.w3.org/2000/svg">
<rect width="52.1016" height="40" rx="4" fill="#E2B65C"/>
<path d="M16.5 20.1172H13.5586V18.0547H15.7383C16.2461 18.0547 16.6562 17.9727 16.9688 17.8086C17.2812 17.6367 17.5117 17.3945 17.6602 17.082C17.8086 16.7617 17.8828 16.3867 17.8828 15.957C17.8828 15.6367 17.7969 15.3398 17.625 15.0664C17.4609 14.793 17.207 14.5742 16.8633 14.4102C16.5195 14.2461 16.082 14.1641 15.5508 14.1641C15.1445 14.1641 14.7734 14.2305 14.4375 14.3633C14.1016 14.4961 13.8359 14.6914 13.6406 14.9492C13.4453 15.1992 13.3477 15.5117 13.3477 15.8867H9.24609C9.24609 15.1211 9.41406 14.4375 9.75 13.8359C10.0859 13.2344 10.543 12.7227 11.1211 12.3008C11.707 11.8789 12.3789 11.5586 13.1367 11.3398C13.9023 11.1133 14.707 11 15.5508 11C16.5273 11 17.4102 11.1055 18.1992 11.3164C18.9883 11.5195 19.6641 11.8242 20.2266 12.2305C20.7969 12.6367 21.2344 13.1445 21.5391 13.7539C21.8438 14.3555 21.9961 15.0547 21.9961 15.8516C21.9961 16.4375 21.8633 16.9883 21.5977 17.5039C21.3398 18.0195 20.9688 18.4727 20.4844 18.8633C20 19.2539 19.418 19.5625 18.7383 19.7891C18.0664 20.0078 17.3203 20.1172 16.5 20.1172ZM13.5586 19.0742H16.5C17.4141 19.0742 18.2266 19.1719 18.9375 19.3672C19.6484 19.5625 20.25 19.8477 20.7422 20.2227C21.2422 20.5977 21.6211 21.0625 21.8789 21.6172C22.1367 22.1641 22.2656 22.793 22.2656 23.5039C22.2656 24.3008 22.0977 25.0117 21.7617 25.6367C21.4336 26.2539 20.9688 26.7773 20.3672 27.207C19.7656 27.6367 19.0547 27.9609 18.2344 28.1797C17.4219 28.3984 16.5273 28.5078 15.5508 28.5078C14.7617 28.5078 13.9766 28.4141 13.1953 28.2266C12.4219 28.0312 11.7188 27.7344 11.0859 27.3359C10.4531 26.9375 9.94531 26.4258 9.5625 25.8008C9.1875 25.1758 9 24.4258 9 23.5508H13.125C13.125 23.8945 13.2266 24.2031 13.4297 24.4766C13.6406 24.75 13.9297 24.9648 14.2969 25.1211C14.6641 25.2773 15.082 25.3555 15.5508 25.3555C16.0977 25.3555 16.5625 25.2695 16.9453 25.0977C17.3359 24.9258 17.6328 24.6914 17.8359 24.3945C18.0391 24.0977 18.1406 23.7695 18.1406 23.4102C18.1406 22.9883 18.0898 22.6328 17.9883 22.3438C17.8867 22.0469 17.7344 21.8086 17.5312 21.6289C17.3281 21.4414 17.0742 21.3086 16.7695 21.2305C16.4727 21.1445 16.1289 21.1016 15.7383 21.1016H13.5586V19.0742Z" fill="#2D2A2A"/>
<path d="M26.7305 11.2227H30.082L33.8906 23.0938L37.6992 11.2227H41.0508L35.25 28.2852H32.5312L26.7305 11.2227ZM24.6914 11.2227H28.1602L28.8047 24.3008V28.2852H24.6914V11.2227ZM39.6211 11.2227H43.1016V28.2852H38.9766V24.3008L39.6211 11.2227Z" fill="#2D2A2A"/>
<path d="M70.6836 19.6836H68.4766V18.1309H70.2344C70.7487 18.1309 71.1654 18.0527 71.4844 17.8965C71.8034 17.7337 72.0378 17.5059 72.1875 17.2129C72.3372 16.9199 72.4121 16.5749 72.4121 16.1777C72.4121 15.8522 72.3275 15.5527 72.1582 15.2793C71.9954 15.0059 71.7415 14.7878 71.3965 14.625C71.0514 14.4557 70.612 14.3711 70.0781 14.3711C69.6745 14.3711 69.3066 14.4427 68.9746 14.5859C68.6426 14.7292 68.3789 14.931 68.1836 15.1914C67.9883 15.4453 67.8906 15.7546 67.8906 16.1191H64.9707C64.9707 15.4941 65.1042 14.9342 65.3711 14.4395C65.6445 13.9382 66.0156 13.515 66.4844 13.1699C66.9596 12.8184 67.5065 12.5514 68.125 12.3691C68.7435 12.1868 69.3945 12.0957 70.0781 12.0957C70.8789 12.0957 71.6016 12.1836 72.2461 12.3594C72.8906 12.5286 73.444 12.7826 73.9062 13.1211C74.3685 13.4596 74.7233 13.8796 74.9707 14.3809C75.2181 14.8822 75.3418 15.4648 75.3418 16.1289C75.3418 16.6172 75.2311 17.0762 75.0098 17.5059C74.7884 17.9355 74.4727 18.3132 74.0625 18.6387C73.6523 18.9642 73.1608 19.2214 72.5879 19.4102C72.015 19.5924 71.3802 19.6836 70.6836 19.6836ZM68.4766 18.834H70.6836C71.4583 18.834 72.1452 18.9154 72.7441 19.0781C73.3496 19.2409 73.8607 19.4785 74.2773 19.791C74.7005 20.1035 75.0195 20.4909 75.2344 20.9531C75.4557 21.4089 75.5664 21.9329 75.5664 22.5254C75.5664 23.1895 75.4297 23.7786 75.1562 24.293C74.8893 24.8073 74.5085 25.2435 74.0137 25.6016C73.5254 25.9596 72.946 26.2298 72.2754 26.4121C71.6113 26.5944 70.8789 26.6855 70.0781 26.6855C69.4401 26.6855 68.8053 26.6074 68.1738 26.4512C67.5423 26.2884 66.9694 26.041 66.4551 25.709C65.9408 25.377 65.5306 24.9505 65.2246 24.4297C64.9186 23.9089 64.7656 23.2839 64.7656 22.5547H67.7051C67.7051 22.8997 67.806 23.2155 68.0078 23.502C68.2096 23.7819 68.4896 24.0065 68.8477 24.1758C69.2057 24.3385 69.6159 24.4199 70.0781 24.4199C70.6185 24.4199 71.0775 24.3353 71.4551 24.166C71.8392 23.9967 72.1289 23.7656 72.3242 23.4727C72.526 23.1732 72.627 22.8444 72.627 22.4863C72.627 22.1022 72.5749 21.7767 72.4707 21.5098C72.3665 21.2428 72.2135 21.0247 72.0117 20.8555C71.8099 20.6797 71.5592 20.5527 71.2598 20.4746C70.9668 20.3965 70.625 20.3574 70.2344 20.3574H68.4766V18.834ZM83.2617 24.1172V19.4102C83.2617 19.0716 83.2064 18.7819 83.0957 18.541C82.985 18.2936 82.8125 18.1016 82.5781 17.9648C82.3503 17.8281 82.054 17.7598 81.6895 17.7598C81.377 17.7598 81.1068 17.8151 80.8789 17.9258C80.651 18.0299 80.4753 18.1829 80.3516 18.3848C80.2279 18.5801 80.166 18.8112 80.166 19.0781H77.3535C77.3535 18.6289 77.4577 18.2025 77.666 17.7988C77.8743 17.3952 78.1771 17.0404 78.5742 16.7344C78.9714 16.4219 79.4434 16.1777 79.9902 16.002C80.5436 15.8262 81.1621 15.7383 81.8457 15.7383C82.666 15.7383 83.3952 15.875 84.0332 16.1484C84.6712 16.4219 85.1725 16.832 85.5371 17.3789C85.9082 17.9258 86.0938 18.6094 86.0938 19.4297V23.9512C86.0938 24.5306 86.1296 25.0059 86.2012 25.377C86.2728 25.7415 86.377 26.0605 86.5137 26.334V26.5H83.6719C83.5352 26.2135 83.431 25.8555 83.3594 25.4258C83.2943 24.9896 83.2617 24.5534 83.2617 24.1172ZM83.6328 20.0645L83.6523 21.6562H82.0801C81.709 21.6562 81.3867 21.6986 81.1133 21.7832C80.8398 21.8678 80.6152 21.9883 80.4395 22.1445C80.2637 22.2943 80.1335 22.4701 80.0488 22.6719C79.9707 22.8737 79.9316 23.0951 79.9316 23.3359C79.9316 23.5768 79.987 23.7949 80.0977 23.9902C80.2083 24.179 80.3678 24.3288 80.5762 24.4395C80.7845 24.5436 81.0286 24.5957 81.3086 24.5957C81.7318 24.5957 82.0996 24.5111 82.4121 24.3418C82.7246 24.1725 82.9655 23.9642 83.1348 23.7168C83.3105 23.4694 83.4017 23.235 83.4082 23.0137L84.1504 24.2051C84.0462 24.472 83.903 24.7487 83.7207 25.0352C83.5449 25.3216 83.3203 25.5918 83.0469 25.8457C82.7734 26.0931 82.4447 26.2982 82.0605 26.4609C81.6764 26.6172 81.2207 26.6953 80.6934 26.6953C80.0228 26.6953 79.4141 26.5618 78.8672 26.2949C78.3268 26.0215 77.8971 25.6471 77.5781 25.1719C77.2656 24.6901 77.1094 24.1432 77.1094 23.5312C77.1094 22.9779 77.2135 22.4863 77.4219 22.0566C77.6302 21.627 77.9362 21.2656 78.3398 20.9727C78.75 20.6732 79.2611 20.4486 79.873 20.2988C80.485 20.1426 81.1947 20.0645 82.002 20.0645H83.6328ZM101.123 21.2852V21.4902C101.123 22.252 101.038 22.9518 100.869 23.5898C100.706 24.2214 100.459 24.7715 100.127 25.2402C99.7949 25.7025 99.388 26.0605 98.9062 26.3145C98.4245 26.5684 97.8678 26.6953 97.2363 26.6953C96.6504 26.6953 96.1426 26.5846 95.7129 26.3633C95.2897 26.1354 94.9316 25.8197 94.6387 25.416C94.3522 25.0059 94.1178 24.5306 93.9355 23.9902C93.7598 23.4434 93.6296 22.8542 93.5449 22.2227V20.5332C93.6296 19.8561 93.7598 19.2279 93.9355 18.6484C94.1113 18.0625 94.3424 17.5514 94.6289 17.1152C94.9219 16.679 95.2799 16.3405 95.7031 16.0996C96.1263 15.8587 96.6309 15.7383 97.2168 15.7383C97.7246 15.7383 98.1836 15.8262 98.5938 16.002C99.0104 16.1777 99.375 16.4284 99.6875 16.7539C100.007 17.0794 100.27 17.4733 100.479 17.9355C100.693 18.3913 100.853 18.9023 100.957 19.4688C101.068 20.0352 101.123 20.6406 101.123 21.2852ZM98.3008 21.4902V21.2852C98.3008 20.9206 98.278 20.5723 98.2324 20.2402C98.1934 19.9017 98.1283 19.5924 98.0371 19.3125C97.9525 19.0326 97.8385 18.7917 97.6953 18.5898C97.5521 18.3815 97.3796 18.222 97.1777 18.1113C96.9759 17.9941 96.7448 17.9355 96.4844 17.9355C96.0286 17.9355 95.6543 18.0267 95.3613 18.209C95.0749 18.3848 94.86 18.6387 94.7168 18.9707C94.5801 19.2962 94.502 19.6803 94.4824 20.123V22.6426C94.5085 23.0202 94.5898 23.349 94.7266 23.6289C94.8698 23.9023 95.0846 24.1172 95.3711 24.2734C95.6641 24.4232 96.0417 24.498 96.5039 24.498C96.8359 24.498 97.1159 24.4232 97.3438 24.2734C97.5781 24.1237 97.7637 23.9121 97.9004 23.6387C98.0436 23.3652 98.1445 23.0495 98.2031 22.6914C98.2682 22.3268 98.3008 21.9264 98.3008 21.4902ZM87.832 21.4902V21.2852C87.832 20.6406 87.8874 20.0352 87.998 19.4688C88.1087 18.9023 88.2682 18.3913 88.4766 17.9355C88.6914 17.4733 88.9551 17.0794 89.2676 16.7539C89.5801 16.4284 89.9414 16.1777 90.3516 16.002C90.7682 15.8262 91.2305 15.7383 91.7383 15.7383C92.3177 15.7383 92.819 15.8587 93.2422 16.0996C93.6654 16.3405 94.0202 16.679 94.3066 17.1152C94.5931 17.5514 94.8242 18.0625 95 18.6484C95.1758 19.2279 95.3092 19.8561 95.4004 20.5332V22.1445C95.3092 22.7956 95.1758 23.3978 95 23.9512C94.8242 24.498 94.5898 24.9798 94.2969 25.3965C94.0104 25.8066 93.6556 26.1257 93.2324 26.3535C92.8092 26.5814 92.3047 26.6953 91.7188 26.6953C91.0938 26.6953 90.5371 26.5684 90.0488 26.3145C89.5671 26.0605 89.1602 25.7025 88.8281 25.2402C88.5026 24.7715 88.2552 24.2214 88.0859 23.5898C87.9167 22.9518 87.832 22.252 87.832 21.4902ZM90.6445 21.2852V21.4902C90.6445 21.9264 90.6738 22.3268 90.7324 22.6914C90.7975 23.0495 90.8984 23.3652 91.0352 23.6387C91.1784 23.9056 91.3639 24.1139 91.5918 24.2637C91.8197 24.4134 92.0996 24.4883 92.4316 24.4883C92.9004 24.4883 93.278 24.4102 93.5645 24.2539C93.8574 24.0977 94.0755 23.8763 94.2188 23.5898C94.362 23.3034 94.4401 22.9616 94.4531 22.5645V20.123C94.4401 19.6803 94.362 19.2962 94.2188 18.9707C94.082 18.6387 93.8704 18.3848 93.584 18.209C93.2975 18.0267 92.9199 17.9355 92.4512 17.9355C92.1191 17.9355 91.8359 18.0234 91.6016 18.1992C91.3737 18.375 91.1882 18.6159 91.0449 18.9219C90.9082 19.2279 90.8073 19.5859 90.7422 19.9961C90.6771 20.3997 90.6445 20.8294 90.6445 21.2852ZM93.0469 30.5625V11.5H95.8691V30.5625H93.0469ZM108.594 24.1172V19.4102C108.594 19.0716 108.538 18.7819 108.428 18.541C108.317 18.2936 108.145 18.1016 107.91 17.9648C107.682 17.8281 107.386 17.7598 107.021 17.7598C106.709 17.7598 106.439 17.8151 106.211 17.9258C105.983 18.0299 105.807 18.1829 105.684 18.3848C105.56 18.5801 105.498 18.8112 105.498 19.0781H102.686C102.686 18.6289 102.79 18.2025 102.998 17.7988C103.206 17.3952 103.509 17.0404 103.906 16.7344C104.303 16.4219 104.775 16.1777 105.322 16.002C105.876 15.8262 106.494 15.7383 107.178 15.7383C107.998 15.7383 108.727 15.875 109.365 16.1484C110.003 16.4219 110.505 16.832 110.869 17.3789C111.24 17.9258 111.426 18.6094 111.426 19.4297V23.9512C111.426 24.5306 111.462 25.0059 111.533 25.377C111.605 25.7415 111.709 26.0605 111.846 26.334V26.5H109.004C108.867 26.2135 108.763 25.8555 108.691 25.4258C108.626 24.9896 108.594 24.5534 108.594 24.1172ZM108.965 20.0645L108.984 21.6562H107.412C107.041 21.6562 106.719 21.6986 106.445 21.7832C106.172 21.8678 105.947 21.9883 105.771 22.1445C105.596 22.2943 105.465 22.4701 105.381 22.6719C105.303 22.8737 105.264 23.0951 105.264 23.3359C105.264 23.5768 105.319 23.7949 105.43 23.9902C105.54 24.179 105.7 24.3288 105.908 24.4395C106.117 24.5436 106.361 24.5957 106.641 24.5957C107.064 24.5957 107.432 24.5111 107.744 24.3418C108.057 24.1725 108.298 23.9642 108.467 23.7168C108.643 23.4694 108.734 23.235 108.74 23.0137L109.482 24.2051C109.378 24.472 109.235 24.7487 109.053 25.0352C108.877 25.3216 108.652 25.5918 108.379 25.8457C108.105 26.0931 107.777 26.2982 107.393 26.4609C107.008 26.6172 106.553 26.6953 106.025 26.6953C105.355 26.6953 104.746 26.5618 104.199 26.2949C103.659 26.0215 103.229 25.6471 102.91 25.1719C102.598 24.6901 102.441 24.1432 102.441 23.5312C102.441 22.9779 102.546 22.4863 102.754 22.0566C102.962 21.627 103.268 21.2656 103.672 20.9727C104.082 20.6732 104.593 20.4486 105.205 20.2988C105.817 20.1426 106.527 20.0645 107.334 20.0645H108.965ZM116.406 17.9648V30.5625H113.594V15.9336H116.201L116.406 17.9648ZM123.096 21.0996V21.3047C123.096 22.0729 123.005 22.7858 122.822 23.4434C122.646 24.1009 122.386 24.6738 122.041 25.1621C121.696 25.6439 121.266 26.0215 120.752 26.2949C120.244 26.5618 119.658 26.6953 118.994 26.6953C118.35 26.6953 117.79 26.5651 117.314 26.3047C116.839 26.0443 116.439 25.6797 116.113 25.2109C115.794 24.7357 115.537 24.1855 115.342 23.5605C115.146 22.9355 114.997 22.265 114.893 21.5488V21.0117C114.997 20.2435 115.146 19.5404 115.342 18.9023C115.537 18.2578 115.794 17.7012 116.113 17.2324C116.439 16.7572 116.836 16.3893 117.305 16.1289C117.78 15.8685 118.337 15.7383 118.975 15.7383C119.645 15.7383 120.234 15.8652 120.742 16.1191C121.257 16.373 121.686 16.7376 122.031 17.2129C122.383 17.6882 122.646 18.2546 122.822 18.9121C123.005 19.5697 123.096 20.2988 123.096 21.0996ZM120.273 21.3047V21.0996C120.273 20.6504 120.234 20.237 120.156 19.8594C120.085 19.4753 119.967 19.14 119.805 18.8535C119.648 18.5671 119.44 18.3457 119.18 18.1895C118.926 18.0267 118.617 17.9453 118.252 17.9453C117.868 17.9453 117.539 18.0072 117.266 18.1309C116.999 18.2546 116.781 18.4336 116.611 18.668C116.442 18.9023 116.315 19.1823 116.23 19.5078C116.146 19.8333 116.094 20.2012 116.074 20.6113V21.9688C116.107 22.4505 116.198 22.8835 116.348 23.2676C116.497 23.6452 116.729 23.9447 117.041 24.166C117.354 24.3874 117.764 24.498 118.271 24.498C118.643 24.498 118.955 24.4167 119.209 24.2539C119.463 24.0846 119.668 23.8535 119.824 23.5605C119.987 23.2676 120.101 22.929 120.166 22.5449C120.238 22.1608 120.273 21.7474 120.273 21.3047ZM131.338 12.2812H133.818L137.471 22.7207L141.123 12.2812H143.604L138.467 26.5H136.475L131.338 12.2812ZM130 12.2812H132.471L132.92 22.457V26.5H130V12.2812ZM142.471 12.2812H144.951V26.5H142.021V22.457L142.471 12.2812ZM150.146 22.5742L153.691 15.9336H156.504V26.5H153.691V19.8496L150.146 26.5H147.334V15.9336H150.146V22.5742ZM161.484 17.9648V30.5625H158.672V15.9336H161.279L161.484 17.9648ZM168.174 21.0996V21.3047C168.174 22.0729 168.083 22.7858 167.9 23.4434C167.725 24.1009 167.464 24.6738 167.119 25.1621C166.774 25.6439 166.344 26.0215 165.83 26.2949C165.322 26.5618 164.736 26.6953 164.072 26.6953C163.428 26.6953 162.868 26.5651 162.393 26.3047C161.917 26.0443 161.517 25.6797 161.191 25.2109C160.872 24.7357 160.615 24.1855 160.42 23.5605C160.225 22.9355 160.075 22.265 159.971 21.5488V21.0117C160.075 20.2435 160.225 19.5404 160.42 18.9023C160.615 18.2578 160.872 17.7012 161.191 17.2324C161.517 16.7572 161.914 16.3893 162.383 16.1289C162.858 15.8685 163.415 15.7383 164.053 15.7383C164.723 15.7383 165.312 15.8652 165.82 16.1191C166.335 16.373 166.764 16.7376 167.109 17.2129C167.461 17.6882 167.725 18.2546 167.9 18.9121C168.083 19.5697 168.174 20.2988 168.174 21.0996ZM165.352 21.3047V21.0996C165.352 20.6504 165.312 20.237 165.234 19.8594C165.163 19.4753 165.046 19.14 164.883 18.8535C164.727 18.5671 164.518 18.3457 164.258 18.1895C164.004 18.0267 163.695 17.9453 163.33 17.9453C162.946 17.9453 162.617 18.0072 162.344 18.1309C162.077 18.2546 161.859 18.4336 161.689 18.668C161.52 18.9023 161.393 19.1823 161.309 19.5078C161.224 19.8333 161.172 20.2012 161.152 20.6113V21.9688C161.185 22.4505 161.276 22.8835 161.426 23.2676C161.576 23.6452 161.807 23.9447 162.119 24.166C162.432 24.3874 162.842 24.498 163.35 24.498C163.721 24.498 164.033 24.4167 164.287 24.2539C164.541 24.0846 164.746 23.8535 164.902 23.5605C165.065 23.2676 165.179 22.929 165.244 22.5449C165.316 22.1608 165.352 21.7474 165.352 21.3047ZM174.629 21.4609H172.539V20.2012H174.033C174.385 20.2012 174.665 20.1523 174.873 20.0547C175.088 19.957 175.241 19.8203 175.332 19.6445C175.43 19.4622 175.479 19.2572 175.479 19.0293C175.479 18.8275 175.436 18.6354 175.352 18.4531C175.273 18.2643 175.13 18.1113 174.922 17.9941C174.72 17.8704 174.434 17.8086 174.062 17.8086C173.757 17.8086 173.483 17.8542 173.242 17.9453C173.008 18.0365 172.822 18.1699 172.686 18.3457C172.555 18.515 172.49 18.7201 172.49 18.9609H169.668C169.668 18.2904 169.86 17.7174 170.244 17.2422C170.628 16.7604 171.143 16.3926 171.787 16.1387C172.432 15.8783 173.138 15.748 173.906 15.748C174.577 15.748 175.182 15.8164 175.723 15.9531C176.263 16.0833 176.725 16.2786 177.109 16.5391C177.493 16.7995 177.786 17.1217 177.988 17.5059C178.197 17.8835 178.301 18.3229 178.301 18.8242C178.301 19.1823 178.216 19.5208 178.047 19.8398C177.878 20.1589 177.633 20.4421 177.314 20.6895C176.995 20.9303 176.608 21.1191 176.152 21.2559C175.703 21.3926 175.195 21.4609 174.629 21.4609ZM172.539 20.7578H174.629C175.26 20.7578 175.814 20.8197 176.289 20.9434C176.771 21.0605 177.174 21.2363 177.5 21.4707C177.826 21.7051 178.07 21.9948 178.232 22.3398C178.402 22.6784 178.486 23.069 178.486 23.5117C178.486 24.013 178.376 24.4622 178.154 24.8594C177.933 25.25 177.617 25.582 177.207 25.8555C176.797 26.1289 176.312 26.3372 175.752 26.4805C175.192 26.6237 174.577 26.6953 173.906 26.6953C173.19 26.6953 172.493 26.5781 171.816 26.3438C171.139 26.1094 170.583 25.748 170.146 25.2598C169.717 24.7715 169.502 24.1432 169.502 23.375H172.324C172.324 23.5964 172.389 23.8047 172.52 24C172.65 24.1953 172.845 24.3516 173.105 24.4688C173.366 24.5794 173.688 24.6348 174.072 24.6348C174.456 24.6348 174.766 24.5729 175 24.4492C175.234 24.3255 175.404 24.1628 175.508 23.9609C175.618 23.7526 175.674 23.5378 175.674 23.3164C175.674 23.0039 175.612 22.75 175.488 22.5547C175.371 22.3594 175.189 22.2161 174.941 22.125C174.701 22.0339 174.398 21.9883 174.033 21.9883H172.539V20.7578ZM179.766 21.3242V21.1191C179.766 20.3444 179.876 19.6315 180.098 18.9805C180.319 18.3229 180.641 17.7533 181.064 17.2715C181.488 16.7897 182.008 16.4154 182.627 16.1484C183.245 15.875 183.955 15.7383 184.756 15.7383C185.557 15.7383 186.27 15.875 186.895 16.1484C187.52 16.4154 188.044 16.7897 188.467 17.2715C188.896 17.7533 189.222 18.3229 189.443 18.9805C189.665 19.6315 189.775 20.3444 189.775 21.1191V21.3242C189.775 22.0924 189.665 22.8053 189.443 23.4629C189.222 24.1139 188.896 24.6836 188.467 25.1719C188.044 25.6536 187.523 26.028 186.904 26.2949C186.286 26.5618 185.576 26.6953 184.775 26.6953C183.975 26.6953 183.262 26.5618 182.637 26.2949C182.018 26.028 181.494 25.6536 181.064 25.1719C180.641 24.6836 180.319 24.1139 180.098 23.4629C179.876 22.8053 179.766 22.0924 179.766 21.3242ZM182.578 21.1191V21.3242C182.578 21.7669 182.617 22.1803 182.695 22.5645C182.773 22.9486 182.897 23.2871 183.066 23.5801C183.242 23.8665 183.47 24.0911 183.75 24.2539C184.03 24.4167 184.372 24.498 184.775 24.498C185.166 24.498 185.501 24.4167 185.781 24.2539C186.061 24.0911 186.286 23.8665 186.455 23.5801C186.624 23.2871 186.748 22.9486 186.826 22.5645C186.911 22.1803 186.953 21.7669 186.953 21.3242V21.1191C186.953 20.6895 186.911 20.2858 186.826 19.9082C186.748 19.5241 186.621 19.1855 186.445 18.8926C186.276 18.5931 186.051 18.3587 185.771 18.1895C185.492 18.0202 185.153 17.9355 184.756 17.9355C184.359 17.9355 184.02 18.0202 183.74 18.1895C183.467 18.3587 183.242 18.5931 183.066 18.8926C182.897 19.1855 182.773 19.5241 182.695 19.9082C182.617 20.2858 182.578 20.6895 182.578 21.1191Z" fill="#E2B65C"/>
</svg>
