<svg xmlns="http://www.w3.org/2000/svg">
  <symbol id="menu" viewBox="0 0 18 12" fill="none">
    <path d="M1 12h16c.55 0 1-.45 1-1s-.45-1-1-1H1c-.55 0-1 .45-1 1s.45 1 1 1Zm0-5h16c.55 0 1-.45 1-1s-.45-1-1-1H1c-.55 0-1 .45-1 1s.45 1 1 1ZM0 1c0 .55.45 1 1 1h16c.55 0 1-.45 1-1s-.45-1-1-1H1C.45 0 0 .45 0 1Z" fill="currentColor"/>
  </symbol>
  <symbol id="search" viewBox="0 0 30 30">
    <path d="M13 3C7.489 3 3 7.489 3 13s4.489 10 10 10a9.947 9.947 0 0 0 6.322-2.264l5.971 5.971a1 1 0 1 0 1.414-1.414l-5.97-5.97A9.947 9.947 0 0 0 23 13c0-5.511-4.489-10-10-10zm0 2c4.43 0 8 3.57 8 8s-3.57 8-8 8-8-3.57-8-8 3.57-8 8-8z" fill="currentColor" />
  </symbol>
  <symbol id="close" viewBox="0 0 11 10" fill="none">
    <path d="m9.5 1-8 8M1.5 1l8 8" stroke="currentColor" stroke-width="2" stroke-linecap="round" stroke-linejoin="round"/>
  </symbol>
  <symbol id="facebook" viewBox="0 0 16 16" fill="none">
    <path d="M15.416 8.127a7.308 7.308 0 1 0-8.442 7.2v-5.094H5.108V8.127h1.866V6.52c0-1.83 1.086-2.844 2.754-2.844a10.53 10.53 0 0 1 1.626.15v1.8h-.918a1.068 1.068 0 0 0-1.2 1.146V8.14h2.034l-.312 2.088H9.236v5.107a7.285 7.285 0 0 0 6.18-7.2v-.007Z" fill="currentColor"/>
  </symbol>
  <symbol id="instagram" viewBox="0 0 12 12" fill="none">
    <path d="M6 0C4.372 0 4.168.007 3.528.036c-.64.03-1.075.13-1.457.279-.394.153-.73.358-1.063.692A2.945 2.945 0 0 0 .315 2.07c-.149.381-.25.817-.279 1.456C.008 4.166 0 4.37 0 6c0 1.63.007 1.833.036 2.473.03.64.13 1.075.279 1.457.153.394.358.73.692 1.063.333.333.668.539 1.063.692.381.149.817.25 1.456.279.64.029.844.036 2.474.036 1.63 0 1.833-.007 2.473-.036.64-.03 1.076-.13 1.457-.279a2.934 2.934 0 0 0 1.063-.692c.333-.334.538-.669.692-1.063.147-.382.249-.818.279-1.456C11.992 7.834 12 7.63 12 6c0-1.63-.008-1.834-.036-2.474-.03-.639-.132-1.075-.279-1.456a2.946 2.946 0 0 0-.693-1.063A2.933 2.933 0 0 0 9.93.315C9.547.167 9.111.065 8.472.036 7.832.007 7.63 0 6 0H6Zm-.538 1.081h.539c1.602 0 1.791.006 2.424.035.585.027.903.124 1.114.206.28.11.48.24.69.45.21.21.34.41.449.69.082.21.18.528.206 1.113.029.632.035.822.035 2.424 0 1.601-.006 1.791-.035 2.423-.027.585-.124.903-.206 1.114-.11.28-.24.48-.45.69-.21.21-.409.34-.689.448-.211.083-.529.18-1.114.207-.632.029-.822.035-2.424.035-1.603 0-1.792-.006-2.425-.035-.585-.027-.902-.125-1.114-.207a1.858 1.858 0 0 1-.69-.449 1.86 1.86 0 0 1-.45-.69c-.081-.21-.18-.528-.206-1.113-.028-.633-.034-.823-.034-2.425 0-1.602.006-1.791.034-2.424.027-.585.125-.902.207-1.114.109-.28.239-.48.449-.69.21-.21.41-.34.69-.449.211-.082.529-.18 1.114-.206.554-.025.768-.033 1.886-.034v.001Zm3.741.997a.72.72 0 1 0 0 1.44.72.72 0 0 0 0-1.44Zm-3.202.84a3.081 3.081 0 1 0 0 6.164 3.081 3.081 0 0 0 0-6.163ZM6 4a2 2 0 1 1 0 4 2 2 0 0 1 0-4Z" fill="currentColor"/>
  </symbol>
  <symbol id="twitter" viewBox="0 0 12 10" fill="none">
    <path fill-rule="evenodd" clip-rule="evenodd" d="M3.774 9.8c4.528 0 7.005-3.694 7.005-6.897 0-.105 0-.21-.007-.313A4.959 4.959 0 0 0 12 1.335a4.963 4.963 0 0 1-1.414.381c.514-.303.899-.779 1.083-1.34a4.982 4.982 0 0 1-1.564.588A2.492 2.492 0 0 0 6.622.859a2.403 2.403 0 0 0-.713 2.316A7.03 7.03 0 0 1 .835.643a2.403 2.403 0 0 0 .763 3.235A2.473 2.473 0 0 1 .48 3.575v.03c0 1.154.827 2.148 1.975 2.376a2.487 2.487 0 0 1-1.111.042 2.46 2.46 0 0 0 2.3 1.683A4.99 4.99 0 0 1 0 8.711a7.052 7.052 0 0 0 3.774 1.087" fill="currentColor"/>
  </symbol>
  <symbol id="telegram" viewBox="0 0 16 16" fill="none">
    <path d="M8 .8a7.2 7.2 0 1 0 0 14.4A7.2 7.2 0 0 0 8 .8Zm3.537 4.932-1.179 5.571c-.09.396-.324.486-.657.306l-1.8-1.332-.9.837a.46.46 0 0 1-.36.18l.126-1.8 3.33-3.015c.153-.126 0-.198-.216-.072L5.795 8.972l-1.8-.558c-.387-.117-.396-.387.081-.567l6.939-2.7c.342-.099.63.099.522.585Z" fill="currentColor"/>
  </symbol>
  <symbol id="copy" viewBox="0 0 12 12" fill="none">
    <path d="M8.1 1.2h-6V9c0 .33-.27.6-.6.6-.33 0-.6-.27-.6-.6V1.2C.9.54 1.44 0 2.1 0h6c.33 0 .6.27.6.6 0 .33-.27.6-.6.6Zm3 2.4v7.2c0 .66-.54 1.2-1.2 1.2H4.5c-.66 0-1.2-.54-1.2-1.2V3.6c0-.66.54-1.2 1.2-1.2h5.4c.66 0 1.2.54 1.2 1.2Zm-1.2 0H4.5v7.2h5.4V3.6Z" fill="currentColor"/>
  </symbol>
  <symbol id="share" viewBox="0 0 16 18" fill="none">
    <path d="M13 12.433c-.633 0-1.2.25-1.633.642L5.425 9.617c.042-.192.075-.384.075-.584 0-.2-.033-.391-.075-.583L11.3 5.025A2.49 2.49 0 0 0 13 5.7c1.383 0 2.5-1.117 2.5-2.5S14.383.7 13 .7a2.497 2.497 0 0 0-2.5 2.5c0 .2.033.392.075.583L4.7 7.208A2.49 2.49 0 0 0 3 6.533a2.497 2.497 0 0 0-2.5 2.5c0 1.384 1.117 2.5 2.5 2.5.658 0 1.25-.258 1.7-.675l5.933 3.467a2.354 2.354 0 0 0-.066.542A2.436 2.436 0 0 0 13 17.3a2.436 2.436 0 0 0 2.433-2.433A2.436 2.436 0 0 0 13 12.433Zm0-10.066c.458 0 .833.375.833.833a.836.836 0 0 1-.833.833.836.836 0 0 1-.833-.833c0-.458.375-.833.833-.833Zm-10 7.5a.836.836 0 0 1-.833-.834c0-.458.375-.833.833-.833.458 0 .833.375.833.833A.836.836 0 0 1 3 9.867Zm10 5.85a.836.836 0 0 1-.833-.834c0-.458.375-.833.833-.833.458 0 .833.375.833.833a.836.836 0 0 1-.833.834Z" fill="currentColor"/>
  </symbol>
  <symbol id="triangle" viewBox="0 0 6 10" fill="none">
    <path d="m.5 10 5-5-5-5v10Z" fill="currentColor"/>
  </symbol>
  <symbol id="arrow" viewBox="0 0 9 12" fill="none">
    <path d="M.84 1.41 5.42 6 .84 10.59 2.25 12l6-6-6-6L.84 1.41Z" fill="currentColor"/>
  </symbol>
</svg>
